<?xml version="1.0" encoding="UTF-8"?>
<svg id="Layer_1" data-name="Layer 1" xmlns="http://www.w3.org/2000/svg" viewBox="0 0 375 500">
  <defs>
    <style>
      .cls-1 {
        fill: #e6e6e6;
      }

      .cls-2 {
        fill: #c5242a;
      }
    </style>
  </defs>
  <rect class="cls-2" x="161.61" y="161.61" width="176.78" height="176.78" transform="translate(250 -103.55) rotate(45)"/>
  <path class="cls-1" d="M272.73,222.73v46.72l6.82,6.87,6.82-6.87v-46.72h-13.64Zm0-4.55h13.64v-9.02h-13.64v9.02Zm18.18,9.09v43.11c0,.6-.24,1.18-.66,1.6l-9.09,9.16c-.89,.9-2.34,.9-3.23,0l-9.09-9.16c-.42-.43-.66-1-.66-1.6v-11.3h-2.27c-3.77,0-6.82-3.05-6.82-6.82v-13.64c0-3.77,3.05-6.82,6.82-6.82h2.27v-4.55h-45.45v34.09c0,1.26-1.02,2.27-2.27,2.27h-2.27c-7.53,0-13.64,6.11-13.64,13.64s6.11,13.64,13.64,13.64h77.27v-63.64h-4.55Zm0-4.55h6.82c1.26,0,2.27,1.02,2.27,2.27v68.18c0,1.26-1.02,2.27-2.27,2.27h-79.55c-10.04,0-18.18-8.14-18.18-18.18v-52.27c0-11.3,9.16-20.45,20.45-20.45,1.26,0,2.27,1.02,2.27,2.27v15.91h45.45v-15.84c0-1.26,1.02-2.27,2.27-2.27h18.18c1.26,0,2.27,1.02,2.27,2.27v15.84Zm-22.73,13.64h-2.27c-1.26,0-2.27,1.02-2.27,2.27v13.64c0,1.26,1.02,2.27,2.27,2.27h2.27v-18.18Zm-63.64,28.88c3.33-3.77,8.21-6.16,13.64-6.16v-49.84c-7.71,1.1-13.64,7.73-13.64,15.75v40.25h0Zm29.55-33.43h13.64c3.77,0,6.82,3.05,6.82,6.82v13.64c0,3.77-3.05,6.82-6.82,6.82h-13.64c-3.77,0-6.82-3.05-6.82-6.82v-13.64c0-3.77,3.05-6.82,6.82-6.82Zm0,4.55c-1.26,0-2.27,1.02-2.27,2.27v13.64c0,1.26,1.02,2.27,2.27,2.27h13.64c1.26,0,2.27-1.02,2.27-2.27v-13.64c0-1.26-1.02-2.27-2.27-2.27h-13.64Zm-4.55,36.36c-1.26,0-2.27-1.02-2.27-2.27s1.02-2.27,2.27-2.27h31.82c1.26,0,2.27,1.02,2.27,2.27s-1.02,2.27-2.27,2.27h-31.82Zm0,9.09c-1.26,0-2.27-1.02-2.27-2.27s1.02-2.27,2.27-2.27h36.36c1.26,0,2.27,1.02,2.27,2.27s-1.02,2.27-2.27,2.27h-36.36Z"/>
  <rect class="cls-1" x="36.61" y="36.61" width="176.78" height="176.78" transform="translate(125 -51.78) rotate(45)"/>
  <rect class="cls-1" x="36.61" y="286.61" width="176.78" height="176.78" transform="translate(301.78 21.45) rotate(45)"/>
</svg>