<?xml version="1.0" encoding="UTF-8"?>
<svg id="Layer_1" data-name="Layer 1" xmlns="http://www.w3.org/2000/svg" viewBox="0 0 375 500">
  <defs>
    <style>
      .cls-1, .cls-2 {
        fill: #e6e6e6;
      }

      .cls-2 {
        fill-rule: evenodd;
      }

      .cls-3 {
        fill: #c5242a;
      }
    </style>
  </defs>
  <rect class="cls-3" x="161.61" y="161.61" width="176.78" height="176.78" transform="translate(250 -103.55) rotate(45)"/>
  <rect class="cls-1" x="36.61" y="36.61" width="176.78" height="176.78" transform="translate(125 -51.78) rotate(45)"/>
  <rect class="cls-1" x="36.61" y="286.61" width="176.78" height="176.78" transform="translate(301.78 21.45) rotate(45)"/>
  <g id="Page-1">
    <g id="Dribbble-Light-Preview">
      <g id="icons">
        <path id="network_3-_1116_" data-name="network_3-[#1116]" class="cls-2" d="M242,227h20v-20h-20v20Zm0,70h20v-20h-20v20Zm40,0h20v-20h-20v20Zm-80,0h20v-20h-20v20Zm15-30h-10v-20h40v-10h10v10h40v20h-10v-10h-30v10h-10v-10h-30v10Z"/>
      </g>
    </g>
  </g>
</svg>